# xmcd
# Track frame offsets:
# 150
# 15096
# 31438
# 46309
# 62625
# 77669
# 94203
# 108637
# 122399
# 139320
# 157245
# 173410
# 188972
# 203250
# 216035
# 232952
# 252076
# 271054
# 286293
# 295912
#
# Disc length: 4133 seconds
# Revision: 0
# Processed by: cddbd v1.5.1PL0 Copyright (c) Steve Scherf et al.
# Submitted via: VisiTrax 2.9.10.228 - For more info visit www.synapsa.com
#
DISCID=0d102314
DTITLE=Alabama - Ultimate Alabama 20 # 1 Hits
DYEAR=2004
DGENRE=
TTITLE0=Born Country
TTITLE1=Jukebox in My Mind
TTITLE2=Reckless
TTITLE3=Feels So Right
TTITLE4=Love in the First Degree
TTITLE5=Mountain Music
TTITLE6=Song of the South
TTITLE7=Tennessee River
TTITLE8=Take Me Down
TTITLE9=Lady Down on Love
TTITLE10=She and I
TTITLE11=Down Home
TTITLE12=Why Lady Why
TTITLE13=I'm in a Hurry (And Don't Know Why)
TTITLE14=Roll On (Eighteen Wheeler)
TTITLE15=You've Got the Touch
TTITLE16=There's No Way
TTITLE17=Forty Hour Week (For a Livin')
TTITLE18=If You're Gonna Play in Texas (You Gotta Have a Fiddle in the Band)
TTITLE19=Southern Star
EXTD=Audio CD (October 12, 2004]\n\nLabel: RCA \nASIN: B0002YJ2DU
EXTT0=
EXTT1=
EXTT2=
EXTT3=
EXTT4=
EXTT5=
EXTT6=
EXTT7=
EXTT8=
EXTT9=
EXTT10=
EXTT11=
EXTT12=
EXTT13=
EXTT14=
EXTT15=
EXTT16=
EXTT17=
EXTT18=
EXTT19=
PLAYORDER=
